<svg 
 xmlns="http://www.w3.org/2000/svg"
 xmlns:xlink="http://www.w3.org/1999/xlink"
 width="495.5px" height="1043.5px">
<path fill-rule="evenodd"  stroke="rgb(0, 0, 0)" stroke-width="1px" stroke-dasharray="6, 7" stroke-linecap="butt" stroke-linejoin="miter" opacity="0.2" fill="none"
 d="M115.500,1033.499 C115.500,1033.499 120.500,990.499 171.500,989.499 C243.929,988.079 245.394,1046.681 367.500,1040.499 C446.500,1036.499 464.500,974.499 448.500,939.499 C432.500,904.499 321.500,880.498 267.500,880.498 C213.500,880.498 71.500,867.498 12.500,683.498 C-46.500,499.499 142.500,447.499 227.500,453.499 C318.542,459.925 420.500,505.499 461.500,456.499 C502.500,407.499 378.500,383.499 343.500,376.498 C308.500,369.499 259.469,357.231 198.500,332.499 C92.500,289.498 51.500,218.498 51.500,218.498 C51.500,218.498 14.121,96.435 114.500,42.499 C248.500,-29.501 392.277,-3.196 494.500,84.498 "/>
</svg>