<svg 
 xmlns="http://www.w3.org/2000/svg"
 xmlns:xlink="http://www.w3.org/1999/xlink"
 width="688.5px" height="1043.5px">
<path fill-rule="evenodd"  stroke="rgb(0, 0, 0)" stroke-width="1px" stroke-dasharray="6, 7" stroke-linecap="butt" stroke-linejoin="miter" opacity="0.2" fill="none"
 d="M115.500,1033.500 C115.500,1033.500 120.500,990.499 171.500,989.499 C243.929,988.079 245.394,1046.682 367.500,1040.499 C446.500,1036.499 464.500,974.499 448.500,939.499 C432.500,904.499 321.500,880.499 267.500,880.499 C213.500,880.499 71.500,867.499 12.500,683.499 C-46.500,499.499 142.500,447.500 227.500,453.499 C318.542,459.925 420.500,505.499 461.500,456.499 C502.500,407.499 378.500,383.499 343.500,376.499 C308.500,369.499 259.469,357.232 198.500,332.499 C92.500,289.499 51.500,218.499 51.500,218.499 C51.500,218.499 14.121,96.435 114.500,42.499 C248.500,-29.500 392.277,-3.196 494.500,84.499 C583.249,160.635 666.500,115.499 689.500,96.499 "/>
</svg>