<?xml version="1.0" encoding="utf-8"?>
<!-- Generator: Adobe Illustrator 22.1.0, SVG Export Plug-In . SVG Version: 6.00 Build 0)  -->
<svg version="1.2" baseProfile="tiny" id="Слой_1"
	 xmlns="http://www.w3.org/2000/svg" xmlns:xlink="http://www.w3.org/1999/xlink" x="0px" y="0px" width="860.767px"
	 height="321.416px" viewBox="0 0 860.767 321.416" xml:space="preserve">
<g>
	<g>
		<path fill="#FFFFFF" d="M150.356,8.422c0.268,1.005,0.685,1.919,0.73,2.85c0.175,3.645,0.315,7.296,0.305,10.944
			c-0.007,2.584-0.825,3.344-3.377,3.559c-1.09,0.092-2.202-0.027-3.281,0.118c-1.192,0.16-2.396,0.408-3.525,0.811
			c-1.231,0.439-1.703,1.476-1.595,2.779c0.094,1.132,0.697,1.842,2.051,2.238c0.579,0.17,1.198,0.33,1.791,0.304
			c3.705-0.163,7.407-0.417,11.113-0.567c2.245-0.091,3.875-2.064,3.899-4.278c0.029-2.616,0.024-5.232,0.055-7.848
			c0.03-2.554,0.074-5.107,0.145-7.66c0.015-0.541,0.146-1.084,0.273-1.615c0.481-2.004,0.954-2.396,3.05-2.251
			c1.88,0.13,3.748,0.407,5.625,0.592c3.691,0.365,7.4,0.597,11.073,1.097c4.09,0.557,8.167,1.258,12.214,2.077
			c2.327,0.471,2.88,1.561,2.376,3.856c-0.587,2.671-1.204,5.336-1.834,7.997c-0.153,0.648-0.373,1.287-0.62,1.907
			c-0.976,2.448-1.475,2.826-4.077,2.722c-1.698-0.068-3.388-0.324-5.084-0.481c-0.544-0.05-1.092-0.08-1.637-0.074
			c-1.045,0.013-1.957,0.318-2.285,1.435c-0.33,1.122-0.201,2.194,0.732,3.01c0.406,0.355,0.875,0.678,1.37,0.881
			c0.727,0.297,1.492,0.522,2.26,0.693c3.024,0.671,6.06,1.289,9.083,1.967c1.807,0.406,2.441,0.243,3.267-1.396
			c0.625-1.239,1.097-2.571,1.5-3.903c1.249-4.132,2.398-8.295,3.653-12.426c1.024-3.37,1.655-3.815,4.986-2.591
			c6.219,2.286,12.355,4.797,18.512,7.248c1.24,0.493,2.471,1.049,3.621,1.722c1.936,1.135,2.371,2.436,1.338,4.455
			c-1.717,3.355-3.539,6.66-5.404,9.936c-0.868,1.526-1.279,1.659-3.001,1.21c-1.048-0.273-2.032-0.791-3.054-1.174
			c-0.849-0.318-1.692-0.714-2.573-0.871c-1.521-0.272-2.691,0.442-3.226,1.779c-0.48,1.2-0.131,2.098,1.243,3.065
			c0.546,0.384,1.12,0.736,1.711,1.047c1.991,1.048,3.983,2.096,5.998,3.096c2.173,1.079,3.49,0.766,4.792-1.278
			c1.503-2.358,2.875-4.8,4.315-7.198c1.472-2.45,2.998-4.869,4.422-7.347c0.745-1.296,1.811-1.539,3.088-1.191
			c0.69,0.188,1.39,0.491,1.97,0.904c5.649,4.024,11.274,8.082,16.905,12.131c0.049,0.035,0.096,0.075,0.143,0.114
			c3.139,2.546,3.261,3.709,0.661,6.726c-1.748,2.029-3.523,4.035-5.291,6.046c-0.361,0.411-0.739,0.81-1.129,1.194
			c-1.648,1.617-2.202,1.687-4.09,0.401c-0.803-0.547-1.531-1.201-2.304-1.793c-0.772-0.592-1.521-1.223-2.342-1.739
			c-1.525-0.959-2.209-0.887-3.223,0.193c-1.045,1.113-1.227,2.674-0.376,3.837c0.392,0.535,0.87,1.023,1.374,1.458
			c2.164,1.87,4.35,3.716,6.534,5.563c0.324,0.274,0.674,0.523,1.032,0.752c1.336,0.855,2.04,0.845,3.318-0.125
			c0.579-0.439,1.109-0.951,1.617-1.473c3.138-3.231,6.257-6.481,9.4-9.707c0.677-0.695,1.382-1.38,2.155-1.962
			c1.028-0.773,1.793-0.757,2.837,0.006c0.585,0.427,1.11,0.949,1.606,1.482c6.06,6.515,11.682,13.395,16.905,20.594
			c2.6,3.583,1.734,4.038-1.074,5.904c-2.382,1.582-4.787,3.131-7.194,4.675c-0.56,0.36-1.152,0.684-1.76,0.954
			c-1.248,0.553-2.413,0.371-3.324-0.662c-0.843-0.955-1.591-1.994-2.382-2.995c-0.829-1.048-1.589-2.162-2.508-3.125
			c-1.046-1.096-2.055-1.142-3.288-0.385c-1.144,0.702-1.609,1.822-1.218,3.139c0.153,0.514,0.427,1.01,0.728,1.46
			c2.062,3.087,4.105,6.187,6.234,9.227c1.83,2.614,2.699,2.802,5.455,1.244c3.973-2.245,7.907-4.559,11.864-6.832
			c0.79-0.454,1.583-0.923,2.421-1.272c1.558-0.648,2.655-0.304,3.638,1.094c0.383,0.544,0.689,1.147,0.987,1.744
			c4.024,8.064,7.56,16.338,10.61,24.818c0.082,0.229,0.171,0.457,0.239,0.69c0.683,2.348,0.323,3.234-2.032,4.018
			c-3.69,1.229-7.433,2.298-11.149,3.45c-0.935,0.29-1.741,0.04-2.289-0.685c-0.578-0.765-1.069-1.622-1.451-2.503
			c-0.482-1.113-0.727-2.331-1.238-3.428c-0.455-0.977-1.053-1.916-1.734-2.753c-0.7-0.861-1.659-0.851-2.662-0.414
			c-0.995,0.434-1.636,1.046-1.454,2.216c0.177,1.137,0.266,2.303,0.584,3.401c0.711,2.451,1.541,4.868,2.325,7.299
			c0.093,0.289,0.193,0.577,0.307,0.858c1.137,2.799,2.295,3.523,5.22,2.863c4.208-0.949,8.38-2.06,12.569-3.093
			c1.059-0.261,2.116-0.59,3.194-0.703c1.776-0.186,2.33,0.138,2.881,1.808c0.569,1.727,1.077,3.495,1.386,5.285
			c0.774,4.493,1.462,9.001,2.097,13.516c0.271,1.924,0.35,3.877,0.457,5.82c0.033,0.596-0.11,1.208-0.214,1.805
			c-0.205,1.176-0.951,1.869-2.111,1.923c-3.889,0.182-7.78,0.366-11.672,0.41c-1.771,0.02-2.965-1.007-3.375-2.777
			c-0.191-0.826-0.248-1.682-0.414-2.515c-0.213-1.068-0.358-2.171-0.742-3.179c-0.512-1.341-1.658-1.733-2.979-1.147
			c-1.119,0.496-1.863,1.351-2.119,2.574c-0.062,0.296-0.115,0.611-0.079,0.907c0.385,3.132,0.707,6.276,1.222,9.387
			c0.264,1.599,1.072,2.166,2.872,2.248c2.796,0.127,5.597,0.137,8.396,0.171c2.556,0.03,5.113-0.011,7.668,0.046
			c3.032,0.068,3.611,0.677,3.623,3.697c0.022,5.792-0.39,11.542-1.558,17.233c-0.341,1.662-0.376,3.385-0.617,5.07
			c-0.342,2.382-1.261,3.152-3.686,3.039c-1.15-0.054-2.308-0.206-3.434-0.443c-2.439-0.513-4.867-1.084-7.288-1.68
			c-1.919-0.473-2.531-1.271-2.47-3.245c0.034-1.09,0.259-2.174,0.313-3.265c0.057-1.146,0.142-2.316-0.02-3.442
			c-0.203-1.403-0.918-2.013-2.121-2.13c-1.256-0.122-2.311,0.285-2.921,1.432c-0.308,0.579-0.506,1.242-0.628,1.891
			c-0.572,3.045-1.134,6.092-1.636,9.149c-0.529,3.217-0.2,2.986,2.2,3.902c2.2,0.84,4.555,1.281,6.849,1.869
			c2.943,0.753,5.895,1.473,8.84,2.218c0.411,0.104,0.818,0.242,1.208,0.408c2.165,0.921,2.537,1.493,1.87,3.78
			c-0.852,2.916-1.809,5.808-2.877,8.652c-2.029,5.408-4.133,10.789-6.291,16.147c-0.468,1.162-1.237,2.221-1.973,3.251
			c-0.533,0.745-1.36,1.029-2.277,0.724c-0.918-0.305-1.859-0.581-2.72-1.008c-2.125-1.054-4.211-2.186-6.311-3.29
			c-3.694-1.943-4.216-3.588-2.373-7.372c0.691-1.419,1.443-2.822,1.98-4.3c0.767-2.113-0.921-4.097-3.153-3.742
			c-0.531,0.084-1.122,0.487-1.462,0.92c-0.597,0.757-1.074,1.624-1.509,2.491c-1.39,2.773-2.765,5.554-4.096,8.356
			c-1.588,3.342-1.201,4.546,1.992,6.402c3.788,2.201,7.594,4.37,11.371,6.591c0.885,0.52,1.759,1.11,2.501,1.812
			c1.142,1.081,1.217,1.842,0.541,3.261c-0.234,0.492-0.521,0.964-0.821,1.42c-4.756,7.227-9.862,14.194-15.472,20.784
			c-0.63,0.74-1.287,1.47-2.015,2.11c-1.199,1.054-1.934,1.079-3.295,0.247c-0.362-0.221-0.725-0.46-1.03-0.752
			c-2.549-2.441-5.125-4.856-7.61-7.361c-1.461-1.473-1.467-2.701-0.181-4.371c0.779-1.011,1.676-1.93,2.488-2.916
			c0.657-0.797,1.326-1.595,1.883-2.46c0.767-1.192,0.635-2.222-0.268-3.144c-1.019-1.04-2.343-1.296-3.471-0.561
			c-0.655,0.428-1.264,0.961-1.797,1.536c-2.234,2.41-4.455,4.833-6.637,7.29c-1.799,2.027-1.863,3.236-0.019,5.25
			c2.958,3.231,6.051,6.339,9.069,9.515c0.963,1.013,1.946,2.021,2.784,3.134c0.948,1.258,0.888,1.703-0.107,2.902
			c-0.503,0.606-1.048,1.2-1.663,1.686c-5.684,4.483-11.388,8.94-17.087,13.404c-0.096,0.075-0.201,0.137-0.301,0.206
			c-2.909,1.996-4.238,1.823-6.18-1.086c-1.788-2.68-3.473-5.436-5.081-8.229c-1.261-2.19-1.007-3.109,0.974-4.658
			c0.766-0.599,1.632-1.074,2.371-1.701c0.641-0.543,1.268-1.155,1.722-1.853c0.707-1.084,0.511-2.222-0.361-3.175
			c-0.827-0.904-1.758-1.114-2.971-0.592c-0.668,0.287-1.328,0.62-1.932,1.021c-1.977,1.312-3.958,2.623-5.878,4.015
			c-2.037,1.476-2.296,2.447-1.082,4.653c2.259,4.104,4.633,8.144,6.938,12.223c0.537,0.95,1.079,1.914,1.46,2.93
			c0.517,1.381,0.266,2.134-0.894,3.038c-0.571,0.444-1.211,0.826-1.869,1.128c-6.301,2.889-12.581,5.829-18.933,8.6
			c-3.657,1.596-4.592,1.099-5.96-2.662c-0.977-2.685-1.858-5.405-2.778-8.111c-0.098-0.287-0.191-0.579-0.249-0.877
			c-0.446-2.306-0.049-3.224,2.065-4.259c1.472-0.72,3.045-1.231,4.528-1.93c1.411-0.665,1.931-1.864,1.592-3.305
			c-0.423-1.793-1.633-2.649-3.37-2.057c-3.624,1.236-7.191,2.637-10.784,3.961c-1.226,0.452-1.727,1.346-1.457,2.577
			c0.48,2.194,0.984,4.386,1.59,6.547c0.935,3.337,1.966,6.646,2.953,9.969c0.786,2.647,0.148,3.868-2.458,4.728
			c-0.173,0.057-0.343,0.132-0.521,0.166c-4.596,0.861-9.192,1.724-13.791,2.574c-2.45,0.453-4.897,0.938-7.361,1.301
			c-1.803,0.266-3.629,0.385-5.449,0.511c-0.66,0.046-1.343-0.018-1.995-0.141c-1.704-0.319-2.354-0.926-2.469-2.659
			c-0.178-2.669-0.209-5.349-0.279-8.025c-0.028-1.095-0.013-2.192,0.019-3.286c0.045-1.513,0.795-2.568,2.255-2.96
			c1.225-0.329,2.493-0.5,3.746-0.722c1.493-0.264,3.025-0.381,4.474-0.795c1.529-0.437,1.962-1.824,1.144-3.193
			c-0.837-1.4-2.017-2.265-3.74-2.099c-0.786,0.076-1.591,0.121-2.347,0.326c-2.139,0.58-4.312,0.7-6.51,0.71
			c-1.03,0.004-2.06,0.146-3.088,0.249c-1.295,0.13-2.158,0.869-2.502,2.081c-0.262,0.923-0.44,1.902-0.451,2.858
			c-0.047,4.322-0.018,8.644-0.024,12.966c-0.001,0.608,0.014,1.225-0.083,1.821c-0.262,1.609-1.127,2.436-2.751,2.706
			c-0.36,0.06-0.724,0.13-1.087,0.129c-5.9-0.016-11.791-0.013-17.614-1.282c-2.664-0.581-5.427-0.69-8.117-1.169
			c-1.356-0.241-2.708-0.706-3.958-1.291c-1.499-0.701-1.655-1.154-1.29-2.77c0.698-3.083,1.429-6.159,2.209-9.222
			c0.238-0.935,0.676-1.82,1.033-2.724c0.459-1.16,1.307-1.734,2.559-1.564c1.201,0.163,2.395,0.378,3.586,0.598
			c1.193,0.221,2.371,0.573,3.572,0.695c1.657,0.169,2.506-0.551,2.833-2.166c0.306-1.513-0.386-3.105-1.726-3.416
			c-3.967-0.919-7.949-1.79-11.953-2.526c-1.792-0.33-2.7,0.304-3.491,1.952c-0.393,0.819-0.732,1.675-0.986,2.547
			c-1.004,3.443-1.933,6.909-2.958,10.345c-0.433,1.451-0.948,2.891-1.583,4.264c-0.653,1.411-1.436,1.712-2.977,1.402
			c-0.594-0.12-1.188-0.28-1.75-0.503c-6.164-2.439-12.332-4.865-18.471-7.365c-1.4-0.57-2.675-1.44-4.035-2.116
			c-0.994-0.494-1.223-1.291-1.029-2.269c0.117-0.591,0.257-1.207,0.536-1.732c1.628-3.061,3.256-6.124,4.975-9.135
			c1.117-1.958,2.561-2.379,4.713-1.508c1.295,0.525,2.541,1.169,3.828,1.717c1.062,0.453,2.023,0.225,2.85-0.577
			c1.256-1.217,1.284-2.794,0.037-4.017c-0.343-0.336-0.746-0.637-1.17-0.862c-2.204-1.167-4.392-2.37-6.646-3.433
			c-2.644-1.247-3.984-0.848-5.495,1.665c-2.163,3.598-4.215,7.262-6.332,10.887c-0.674,1.155-1.324,2.337-2.128,3.398
			c-1.106,1.458-2.018,1.619-3.631,0.771c-0.859-0.451-1.685-0.981-2.472-1.549c-5.331-3.842-10.685-7.653-15.955-11.577
			c-3.034-2.26-3.123-3.602-0.708-6.442c1.735-2.039,3.53-4.028,5.307-6.031c0.322-0.364,0.672-0.706,1.033-1.031
			c1.802-1.618,2.91-1.689,4.854-0.281c0.887,0.642,1.721,1.358,2.609,1.998c0.589,0.425,1.199,0.849,1.858,1.142
			c1.345,0.598,2.315,0.364,3.109-0.628c0.891-1.112,0.947-2.373,0.049-3.515c-0.523-0.665-1.135-1.274-1.776-1.83
			c-1.931-1.674-3.892-3.314-5.851-4.956c-0.372-0.312-0.791-0.567-1.184-0.853c-1.149-0.835-2.294-0.725-3.365,0.102
			c-0.719,0.555-1.394,1.179-2.027,1.832c-3.007,3.103-5.982,6.238-8.995,9.335c-0.675,0.694-1.415,1.345-2.202,1.908
			c-1.019,0.729-1.829,0.682-2.841-0.083c-0.531-0.401-1.017-0.872-1.476-1.357c-6.161-6.51-11.794-13.46-17.022-20.73
			c-1.872-2.603-2.397-3.234,1.053-5.729c2.512-1.816,5.163-3.445,7.802-5.077c2.426-1.501,3.555-1.292,5.352,0.881
			c0.774,0.936,1.42,1.976,2.165,2.937c0.669,0.864,1.334,1.746,2.11,2.509c0.966,0.95,1.912,1.002,2.984,0.356
			c1.035-0.624,1.681-1.848,1.386-2.937c-0.203-0.75-0.538-1.499-0.968-2.147c-1.813-2.739-3.654-5.461-5.541-8.15
			c-2.481-3.537-3.632-3.371-6.779-1.529c-3.938,2.305-7.901,4.569-11.868,6.824c-3.301,1.877-4.521,1.562-6.185-1.841
			c-3.957-8.091-7.619-16.314-10.583-24.83c-1.058-3.041-0.496-4.216,2.559-5.229c2.596-0.861,5.228-1.613,7.85-2.395
			c0.523-0.156,1.066-0.263,1.607-0.333c2.51-0.328,3.559,0.304,4.512,2.655c0.798,1.968,1.587,3.941,2.431,5.889
			c0.389,0.898,1.029,1.477,2.145,1.269c1.09-0.203,2.005-0.658,2.361-1.747c0.201-0.614,0.26-1.326,0.181-1.968
			c-0.11-0.898-0.369-1.785-0.635-2.656c-0.693-2.267-1.391-4.533-2.158-6.776c-0.351-1.027-0.798-2.036-1.327-2.983
			c-0.588-1.052-1.549-1.514-2.779-1.268c-0.655,0.131-1.313,0.25-1.961,0.41c-4.308,1.064-8.61,2.146-12.921,3.198
			c-0.766,0.187-1.555,0.312-2.34,0.374c-1.756,0.139-2.409-0.293-3.048-1.937c-1.047-2.69-1.428-5.524-1.815-8.359
			c-0.568-4.156-1.192-8.304-1.724-12.464c-0.184-1.442-0.242-2.912-0.222-4.367c0.025-1.861,1.14-3.138,3.014-3.254
			c3.702-0.228,7.413-0.357,11.122-0.415c1.721-0.027,2.916,1.083,3.292,2.848c0.202,0.948,0.244,1.93,0.348,2.897
			c0.065,0.605,0.052,1.224,0.177,1.814c0.408,1.922,1.27,2.504,3.269,2.281c1.666-0.186,2.597-1.178,2.444-2.998
			c-0.261-3.088-0.637-6.171-1.081-9.239c-0.213-1.471-1.113-2.173-2.685-2.232c-2.493-0.094-4.989-0.099-7.484-0.11
			c-2.8-0.012-5.6,0.021-8.4,0.011c-0.667-0.002-1.343-0.044-2-0.155c-1.146-0.194-1.846-0.895-2.006-2.058
			c-0.091-0.661-0.155-1.334-0.145-2.001c0.077-5.049,0.126-10.092,1.221-15.071c0.442-2.008,0.496-4.101,0.737-6.154
			c0.085-0.724,0.134-1.461,0.316-2.162c0.496-1.904,1.772-2.687,3.697-2.298c3.038,0.612,6.078,1.215,9.1,1.897
			c0.935,0.211,1.855,0.59,2.71,1.031c1.131,0.583,1.664,1.558,1.446,2.875c-0.158,0.958-0.283,1.922-0.432,2.882
			c-0.121,0.781-0.332,1.556-0.371,2.34c-0.089,1.766,0.771,2.795,2.444,3.051c1.596,0.244,2.886-0.566,3.321-2.143
			c0.177-0.642,0.239-1.316,0.362-1.973c0.345-1.848,0.703-3.694,1.041-5.543c0.196-1.073,0.412-2.146,0.533-3.229
			c0.164-1.46-0.589-2.454-1.842-3.06c-0.65-0.315-1.364-0.52-2.069-0.694c-4.189-1.033-8.387-2.03-12.574-3.071
			c-0.941-0.234-1.873-0.54-2.771-0.908c-1.859-0.762-2.283-1.479-1.708-3.389c1.121-3.725,2.245-7.457,3.592-11.104
			c1.747-4.733,3.695-9.393,5.596-14.068c0.387-0.952,0.889-1.871,1.443-2.738c0.889-1.388,1.703-1.633,3.262-1.115
			c0.344,0.115,0.678,0.271,1.001,0.44c2.859,1.49,5.718,2.982,8.569,4.487c0.428,0.226,0.859,0.476,1.224,0.79
			c0.943,0.809,1.485,1.808,1.027,3.07c-0.559,1.539-1.235,3.036-1.776,4.581c-0.398,1.134-0.817,2.299-0.944,3.481
			c-0.145,1.344,0.541,2.282,1.529,2.632c1.276,0.453,2.266,0.131,3.171-1.069c0.329-0.436,0.651-0.89,0.89-1.378
			c1.604-3.278,3.233-6.545,4.755-9.861c0.964-2.1,0.52-3.558-1.35-4.929c-0.831-0.609-1.737-1.121-2.63-1.641
			c-3.418-1.99-6.878-3.909-10.258-5.962c-3.565-2.165-3.805-2.859-1.438-6.487c4.793-7.347,10.072-14.344,15.706-21.068
			c2.496-2.979,3.731-3.026,6.582-0.336c2.036,1.921,4.064,3.852,6.076,5.799c0.478,0.462,0.925,0.973,1.3,1.521
			c0.676,0.989,0.784,2.065,0.08,3.077c-0.727,1.046-1.544,2.03-2.325,3.038c-0.817,1.057-1.71,2.064-2.437,3.181
			c-0.703,1.081-0.511,2.068,0.351,2.966c0.887,0.924,2.117,1.251,3.142,0.691c0.683-0.373,1.344-0.862,1.87-1.432
			c2.31-2.505,4.569-5.057,6.844-7.595c0.122-0.136,0.227-0.286,0.335-0.433c1.274-1.738,1.279-2.973-0.194-4.563
			c-2.647-2.857-5.367-5.646-8.05-8.47c-1.174-1.235-2.358-2.462-3.49-3.735c-1.302-1.465-1.277-2.587,0.077-3.974
			c0.764-0.783,1.556-1.552,2.414-2.227c5.259-4.14,10.538-8.254,15.816-12.37c0.431-0.336,0.889-0.641,1.356-0.927
			c1.938-1.188,3.131-1.085,4.386,0.742c2.1,3.057,4.097,6.19,6.016,9.364c1.079,1.784,0.854,2.795-0.705,4.185
			c-0.995,0.887-2.168,1.573-3.177,2.447c-0.626,0.543-1.292,1.19-1.585,1.931c-0.434,1.097,0.007,2.154,0.871,2.973
			c0.795,0.753,1.714,0.852,2.705,0.437c0.28-0.117,0.575-0.218,0.825-0.384c2.484-1.649,4.973-3.29,7.431-4.977
			c1.062-0.728,1.442-1.837,1.13-3.052c-0.238-0.928-0.629-1.843-1.103-2.679c-2.189-3.865-4.442-7.694-6.651-11.547
			c-2.011-3.507-1.809-4.789,1.784-6.514c6.356-3.052,12.825-5.874,19.297-8.674c0.999-0.432,2.268-0.311,3.41-0.294
			c0.357,0.005,0.862,0.437,1.033,0.799c0.622,1.318,1.173,2.673,1.672,4.043c0.708,1.942,1.349,3.909,2.015,5.866
			c1.148,3.371,0.528,4.705-2.791,6.133c-1.282,0.552-2.597,1.074-3.77,1.811c-0.598,0.375-1.125,1.137-1.318,1.826
			c-0.362,1.292,0.603,3.281,2.664,3.04c0.899-0.105,1.813-0.254,2.666-0.545c2.245-0.764,4.46-1.613,6.685-2.436
			c0.456-0.169,0.909-0.35,1.346-0.561c2.821-1.365,2.97-1.681,2.092-4.723c-1.383-4.791-2.785-9.576-4.181-14.363
			c-0.068-0.233-0.152-0.463-0.215-0.697c-0.666-2.472-0.354-3.112,2.031-4.004c0.91-0.34,1.832-0.688,2.78-0.88
			c4.706-0.952,9.399-1.999,14.141-2.728c4.023-0.619,8.105-0.858,12.162-1.246C148.794,8.373,149.402,8.422,150.356,8.422z
			 M107.482,291.646c-1.621-0.588-2.985-1.058-4.329-1.577c-1.247-0.481-2.448-1.091-3.717-1.499
			c-1.196-0.385-2.131,0.053-2.832,1.088c-1.002,1.48-0.719,3.245,0.942,4.008c3.586,1.649,7.261,3.103,10.906,4.621
			c0.274,0.114,0.595,0.121,0.896,0.16c1.353,0.177,2.428-0.235,2.973-1.554c0.649-1.571,1.285-3.15,1.841-4.755
			c1.235-3.561,2.26-7.203,3.664-10.694c1.339-3.329,1.279-3.875,5.75-2.762c5.067,1.262,10.094,2.713,15.311,3.332
			c1.794,0.213,3.588,0.684,5.296,1.281c1.94,0.678,2.498,1.99,2.204,4.031c-0.381,2.647-0.689,5.304-1.018,7.958
			c-0.09,0.725-0.119,1.457-0.22,2.18c-0.272,1.948-0.884,2.605-2.807,2.676c-1.513,0.056-3.033-0.105-4.551-0.174
			c-1.213-0.055-2.441-0.251-3.635-0.125c-0.785,0.083-1.654,0.475-2.25,0.997c-1.141,0.999-0.987,2.427,0.311,3.211
			c0.873,0.527,1.855,0.952,2.843,1.197c4.645,1.151,9.386,1.284,14.142,1.189c1.086-0.022,1.726-0.618,1.892-1.625
			c0.197-1.194,0.278-2.408,0.38-3.616c0.37-4.358,0.626-8.729,1.12-13.073c0.462-4.066,0.829-4.18,4.928-4.319
			c4.859-0.165,9.717-0.453,14.566-0.814c2.054-0.153,4.078-0.681,6.128-0.943c1.989-0.254,3.024,0.368,3.704,2.175
			c1.428,3.793,2.044,7.758,2.257,11.78c0.108,2.05-0.514,2.938-2.487,3.478c-1.391,0.381-2.875,0.419-4.312,0.643
			c-1.195,0.186-2.423,0.296-3.563,0.665c-1.398,0.453-1.933,1.586-1.698,3.035c0.216,1.337,1.026,2.159,2.483,2.213
			c1.389,0.051,2.805,0.01,4.177-0.203c3.181-0.493,6.344-1.106,9.511-1.69c0.595-0.11,1.195-0.26,1.754-0.487
			c1.24-0.502,2.009-1.395,1.903-2.801c-0.078-1.025-0.179-2.064-0.423-3.059c-0.97-3.954-2.021-7.888-2.993-11.842
			c-0.245-0.997-0.375-2.036-0.44-3.062c-0.111-1.775,0.296-2.425,1.937-3.083c1.297-0.519,2.637-0.928,3.957-1.389
			c3.673-1.282,7.349-2.556,11.017-3.855c1.317-0.466,2.589-1.067,3.921-1.479c2.567-0.795,3.088-0.559,4.417,1.717
			c0.123,0.21,0.23,0.429,0.336,0.648c1.381,2.846,2.776,5.685,4.128,8.544c0.282,0.596,0.422,1.262,0.6,1.903
			c0.263,0.946-0.042,1.68-0.904,2.154c-1.171,0.643-2.368,1.241-3.527,1.905c-1.051,0.602-2.127,1.189-3.08,1.928
			c-0.842,0.652-0.997,1.993-0.563,3.016c0.442,1.039,1.26,1.464,2.341,1.333c0.778-0.095,1.596-0.172,2.303-0.475
			c2.739-1.172,5.484-2.345,8.146-3.679c3.15-1.578,3.423-2.671,1.785-5.788c-2.265-4.308-4.529-8.616-6.784-12.929
			c-0.309-0.591-0.632-1.189-0.835-1.82c-0.346-1.071-0.175-2.053,0.792-2.767c0.733-0.542,1.471-1.079,2.228-1.587
			c3.991-2.678,7.988-5.346,11.983-8.017c0.506-0.338,0.991-0.71,1.516-1.014c1.698-0.984,2.422-1.031,3.692,0.44
			c2.621,3.036,5.076,6.217,7.598,9.338c0.038,0.047,0.065,0.103,0.094,0.156c0.75,1.357,0.711,2.189-0.361,3.296
			c-0.8,0.826-1.735,1.521-2.605,2.28c-0.824,0.719-1.697,1.393-2.445,2.185c-0.892,0.943-0.957,1.955-0.368,3.012
			c0.584,1.048,1.531,1.571,2.75,1.308c0.752-0.162,1.545-0.455,2.151-0.913c2.62-1.981,5.258-3.952,7.738-6.101
			c2.905-2.516,2.866-2.963,0.352-5.868c-3.305-3.82-6.641-7.615-9.934-11.446c-1.766-2.055-1.676-3.248,0.109-5.226
			c4.524-5.013,9.013-10.059,13.521-15.087c0.487-0.543,1.016-1.048,1.507-1.588c0.764-0.84,1.686-0.916,2.668-0.529
			c0.504,0.199,0.989,0.477,1.433,0.789c2.591,1.816,5.174,3.646,7.746,5.489c0.492,0.353,0.962,0.753,1.378,1.193
			c1.153,1.218,1.307,1.994,0.47,3.438c-0.698,1.204-1.557,2.318-2.382,3.446c-0.754,1.031-1.624,1.982-2.323,3.046
			c-0.929,1.415-0.744,2.541,0.427,3.572c1.228,1.081,2.488,1.086,3.759-0.031c0.409-0.359,0.776-0.777,1.106-1.211
			c2.247-2.954,4.488-5.913,6.708-8.888c0.471-0.631,0.893-1.31,1.258-2.008c0.873-1.67,0.7-2.628-0.723-3.863
			c-0.64-0.556-1.353-1.036-2.064-1.502c-3.869-2.534-7.769-5.021-11.615-7.588c-2.415-1.612-2.661-2.765-1.379-5.391
			c0.053-0.109,0.112-0.216,0.17-0.323c3.359-6.211,6.457-12.546,9.219-19.048c1.108-2.608,2.539-3.273,5.251-2.378
			c3.174,1.047,6.319,2.196,9.427,3.426c2.41,0.954,2.785,1.785,2.026,4.233c-0.521,1.68-1.324,3.273-1.835,4.955
			c-0.326,1.075-0.482,2.244-0.47,3.368c0.011,1.039,0.631,1.811,1.755,2.04c1.392,0.285,1.984,0.096,2.76-1.115
			c0.522-0.815,1.017-1.67,1.369-2.568c1.331-3.397,2.606-6.816,3.883-10.234c0.19-0.509,0.302-1.051,0.413-1.585
			c0.266-1.278-0.085-2.339-1.32-2.883c-1.439-0.635-2.905-1.235-4.406-1.701c-3.483-1.082-6.999-2.056-10.49-3.113
			c-0.927-0.281-1.81-0.71-2.714-1.066c-0.962-0.379-1.469-1.107-1.428-2.116c0.059-1.453,0.053-2.937,0.357-4.347
			c0.858-3.983,1.806-7.94,2.214-12.009c0.157-1.564,0.485-3.132,0.935-4.639c0.728-2.438,2.017-3.149,4.534-2.851
			c2.959,0.351,5.924,0.647,8.887,0.969c0.363,0.039,0.727,0.074,1.086,0.138c2.113,0.379,2.482,0.719,2.559,2.828
			c0.067,1.821-0.079,3.65-0.02,5.472c0.025,0.763,0.18,1.605,0.549,2.257c0.942,1.662,2.637,1.749,3.892,0.323
			c0.845-0.959,1.184-2.112,1.306-3.343c0.157-1.574,0.33-3.149,0.405-4.728c0.081-1.701,0.128-3.409,0.061-5.11
			c-0.077-1.938-0.933-2.866-2.839-3.224c-0.712-0.134-1.451-0.149-2.178-0.169c-4.623-0.126-9.246-0.231-13.868-0.361
			c-0.604-0.017-1.211-0.105-1.806-0.215c-0.943-0.175-1.525-0.755-1.624-1.718c-0.143-1.39-0.268-2.784-0.343-4.179
			c-0.137-2.551-0.143-5.112-0.371-7.654c-0.189-2.115-0.63-4.207-0.937-6.313c-0.304-2.086,0.647-3.561,2.666-4.161
			c0.347-0.103,0.714-0.142,1.072-0.204c2.514-0.438,5.027-0.885,7.544-1.305c1.077-0.18,2.162-0.408,3.246-0.425
			c1.535-0.024,2.417,0.64,2.791,2.118c0.265,1.049,0.25,2.165,0.418,3.242c0.187,1.192,0.291,2.429,0.703,3.546
			c0.519,1.409,1.626,1.877,3.09,1.634c1.28-0.213,2.018-1.07,2.136-2.558c0.053-0.665,0.102-1.349,0.008-2.004
			c-0.415-2.885-0.814-5.775-1.347-8.639c-0.731-3.926-1.531-4.516-5.434-3.793c-4.538,0.84-9.051,1.821-13.564,2.795
			c-3.564,0.769-4.726,0.097-5.678-3.446c-0.016-0.059-0.024-0.119-0.039-0.178c-1.529-6.019-3.452-11.91-5.703-17.698
			c-0.347-0.894-0.557-1.873-0.64-2.829c-0.105-1.209,0.246-2.328,1.459-2.901c3.354-1.584,6.722-3.141,10.089-4.698
			c0.216-0.1,0.472-0.115,0.71-0.162c1.776-0.353,2.629-0.071,3.518,1.508c0.741,1.317,1.254,2.762,1.892,4.139
			c0.535,1.155,1.001,2.362,1.687,3.423c0.805,1.246,1.818,1.489,2.984,0.997c1.233-0.521,2.045-1.794,1.856-3.048
			c-0.09-0.594-0.288-1.185-0.522-1.742c-1.607-3.811-3.226-7.616-4.869-11.411c-0.263-0.608-0.606-1.202-1.013-1.724
			c-0.968-1.242-1.732-1.442-3.178-0.872c-0.677,0.267-1.326,0.608-1.975,0.942c-4.274,2.197-8.543,4.404-12.818,6.6
			c-0.431,0.221-0.887,0.398-1.339,0.576c-1.232,0.484-2.29,0.19-3.106-0.819c-0.61-0.755-1.147-1.57-1.692-2.375
			c-3.649-5.389-7.29-10.784-10.938-16.174c-0.273-0.403-0.599-0.77-0.86-1.18c-1.026-1.607-0.963-3.184,0.439-4.458
			c2.791-2.536,5.633-5.021,8.552-7.407c1.662-1.358,2.394-1.268,3.953,0.263c1.123,1.103,2.054,2.399,3.1,3.583
			c0.844,0.955,1.654,1.963,2.621,2.779c0.973,0.821,2.251,0.612,3.338-0.304c1.076-0.907,1.282-1.796,0.638-3.064
			c-0.274-0.538-0.608-1.06-0.99-1.527c-2.468-3.013-4.95-6.014-7.446-9.004c-0.427-0.511-0.915-0.982-1.426-1.41
			c-1.315-1.102-2.047-1.162-3.44-0.223c-0.703,0.474-1.356,1.033-1.976,1.614c-3.376,3.162-6.718,6.36-10.105,9.51
			c-2.619,2.435-3.424,2.378-6.171,0c-4.371-3.783-8.786-7.514-13.174-11.278c-0.599-0.514-1.183-1.054-1.711-1.639
			c-0.812-0.901-0.985-1.949-0.423-3.041c0.416-0.809,0.87-1.606,1.378-2.361c1.36-2.019,2.747-4.019,4.146-6.011
			c0.489-0.696,1.006-1.378,1.573-2.011c1.112-1.243,1.907-1.397,3.367-0.563c0.893,0.51,1.695,1.179,2.542,1.77
			c0.946,0.661,1.85,1.399,2.855,1.954c1.447,0.799,2.749,0.342,3.532-1.093c0.776-1.423,0.599-2.672-0.935-3.843
			c-2.9-2.212-5.905-4.286-8.894-6.38c-0.43-0.302-0.996-0.447-1.521-0.569c-0.968-0.226-1.741-0.008-2.326,0.931
			c-1.448,2.322-2.98,4.592-4.47,6.889c-1.655,2.552-3.255,5.141-4.966,7.654c-1.35,1.983-2.701,2.207-4.851,1.121
			c-4.776-2.413-9.572-4.786-14.357-7.184c-0.541-0.271-1.114-0.524-1.573-0.905c-0.95-0.789-1.533-1.836-1.084-3.067
			c1.372-3.766,2.738-7.539,4.293-11.232c0.713-1.694,1.812-2.043,3.613-1.53c1.104,0.315,2.122,0.921,3.221,1.261
			c1.145,0.354,2.329,0.645,3.517,0.778c1.107,0.124,1.818-0.606,2.187-1.597c0.37-0.995,0.261-1.975-0.618-2.649
			c-0.812-0.623-1.683-1.217-2.614-1.63c-2.779-1.232-5.583-2.413-8.411-3.531c-3.046-1.204-3.91-0.765-5.044,2.362
			c-0.145,0.4-0.277,0.805-0.413,1.208c-1.239,3.69-2.465,7.384-3.723,11.067c-0.373,1.092-0.806,2.165-1.262,3.225
			c-0.531,1.235-1.425,1.942-2.852,1.774c-1.264-0.149-2.555-0.172-3.792-0.443c-4.213-0.923-8.403-1.949-12.611-2.897
			c-1.42-0.32-2.87-0.506-4.3-0.788c-0.891-0.176-1.78-0.382-2.65-0.642c-0.838-0.25-1.237-0.823-1.314-1.748
			c-0.153-1.819-0.286-3.601,0.005-5.444c0.397-2.517,0.545-5.077,0.71-7.624c0.08-1.235,0.79-1.815,1.836-1.867
			c1.502-0.075,3.017,0.033,4.521,0.137c1.63,0.113,3.255,0.435,4.882,0.436c1.449,0,2.462-1.115,2.669-2.538
			c0.193-1.33-0.481-2.407-1.929-2.905c-0.682-0.234-1.415-0.34-2.134-0.442c-3.068-0.439-6.136-0.87-9.209-1.273
			c-1.205-0.158-2.419-0.313-3.631-0.329c-2.293-0.031-2.938,0.525-3.278,2.756c-0.146,0.958-0.152,1.938-0.213,2.909
			c-0.263,4.186-0.518,8.372-0.793,12.556c-0.032,0.481-0.156,0.959-0.273,1.43c-0.536,2.166-1.465,2.995-3.637,3.168
			c-5.944,0.473-11.889,0.922-17.833,1.386c-1.455,0.114-2.907,0.258-4.362,0.37c-2.207,0.17-3.12-0.473-3.682-2.603
			c-0.372-1.411-0.822-2.813-1.049-4.248c-0.398-2.516-0.734-5.048-0.936-7.586c-0.133-1.674,0.039-1.812,1.693-2.276
			c1.108-0.31,2.271-0.418,3.39-0.693c1.827-0.449,3.691-0.823,5.443-1.485c1.888-0.714,2.036-2.791,0.475-4.067
			c-0.927-0.758-1.971-0.925-3.083-0.785c-1.748,0.22-3.497,0.457-5.23,0.772c-2.448,0.445-4.915,0.845-7.314,1.487
			c-3.381,0.905-3.743,1.557-2.957,4.956c0.821,3.551,1.807,7.063,2.645,10.61c0.404,1.707,0.697,3.447,0.925,5.188
			c0.209,1.598-0.659,2.655-2.038,3.329c-0.435,0.213-0.898,0.374-1.355,0.537c-5.551,1.986-11.107,3.958-16.653,5.956
			c-2.858,1.03-3.96,0.692-5.335-1.983c-1.502-2.92-2.884-5.902-4.313-8.86c-0.132-0.273-0.236-0.561-0.331-0.85
			c-0.574-1.755-0.323-2.593,1.218-3.564c0.818-0.516,1.721-0.901,2.598-1.319c0.878-0.418,1.77-0.806,2.659-1.202
			c1.595-0.711,2.003-2.403,1.256-4.031c-0.692-1.506-1.647-1.816-3.493-1.178c-0.173,0.06-0.351,0.106-0.517,0.181
			c-2.658,1.208-5.324,2.398-7.965,3.643c-0.82,0.387-1.562,0.938-2.353,1.391c-1,0.573-1.306,1.455-0.959,2.481
			c0.387,1.144,0.855,2.273,1.41,3.345c2.097,4.052,4.27,8.064,6.363,12.118c1.473,2.853,1.293,3.451-1.324,5.208
			c-4.647,3.12-9.296,6.237-13.948,9.348c-2.289,1.53-2.965,1.44-4.811-0.598c-0.082-0.09-0.16-0.183-0.238-0.277
			c-1.97-2.399-3.947-4.792-5.903-7.202c-0.38-0.469-0.732-0.98-0.997-1.521c-0.623-1.271-0.549-2.504,0.523-3.51
			c0.84-0.789,1.779-1.471,2.648-2.231c0.821-0.718,1.694-1.405,2.387-2.236c0.781-0.937,0.66-2.41-0.086-3.399
			c-0.679-0.899-1.671-1.157-2.955-0.688c-0.505,0.185-0.999,0.459-1.429,0.783c-2.381,1.795-4.758,3.596-7.098,5.442
			c-0.759,0.599-1.445,1.306-2.09,2.029c-0.714,0.8-0.838,1.769-0.343,2.72c0.389,0.749,0.84,1.487,1.38,2.132
			c1.367,1.633,2.799,3.212,4.206,4.811c1.81,2.056,3.659,4.079,5.422,6.174c1.902,2.259,1.84,3.535-0.159,5.733
			c-0.778,0.855-1.632,1.64-2.403,2.501c-3.775,4.217-7.516,8.463-11.303,12.668c-1.853,2.058-3.28,2.261-5.585,0.701
			c-2.619-1.773-5.159-3.664-7.722-5.519c-0.391-0.283-0.752-0.624-1.076-0.983c-1.114-1.235-1.265-2.248-0.374-3.636
			c0.721-1.122,1.606-2.138,2.407-3.209c0.838-1.119,1.743-2.199,2.471-3.386c0.737-1.202,0.306-2.496-0.964-3.488
			c-1.18-0.921-2.2-0.989-3.243,0.143c-3.511,3.811-6.587,7.967-9.324,12.365c-0.776,1.246-0.466,2.493,0.506,3.513
			c0.581,0.609,1.269,1.138,1.977,1.599c3.517,2.294,7.061,4.545,10.583,6.83c0.713,0.462,1.418,0.955,2.049,1.521
			c1.514,1.359,1.734,2.367,0.978,4.225c-0.251,0.618-0.589,1.2-0.881,1.802c-2.86,5.911-5.717,11.824-8.578,17.735
			c-0.371,0.766-0.784,1.513-1.128,2.29c-0.382,0.861-1.038,1.131-1.916,1.018c-0.482-0.062-0.989-0.059-1.44-0.215
			c-3.449-1.185-6.918-2.322-10.317-3.639c-2.124-0.823-2.63-1.949-2.078-4.213c0.329-1.347,0.965-2.617,1.401-3.942
			c0.377-1.147,0.73-2.309,0.979-3.489c0.256-1.218-0.456-2.125-1.299-2.851c-1.138-0.981-2.4-0.768-3.244,0.499
			c-0.402,0.603-0.752,1.259-1.011,1.935c-1.499,3.918-2.965,7.849-4.434,11.779c-0.127,0.34-0.22,0.699-0.277,1.057
			c-0.297,1.886,0.143,2.688,1.911,3.425c0.616,0.256,1.258,0.453,1.899,0.644c4.486,1.34,8.985,2.636,13.458,4.019
			c2.649,0.819,3.476,2.216,3.055,4.976c-0.256,1.682-0.534,3.368-0.942,5.018c-0.806,3.253-1.483,6.515-1.685,9.874
			c-0.08,1.326-0.319,2.668-0.686,3.945c-0.573,1.99-1.523,2.707-3.593,2.677c-3.406-0.05-6.81-0.223-10.215-0.354
			c-0.301-0.012-0.603-0.079-0.9-0.143c-1.721-0.376-2.419-1.072-2.572-2.825c-0.105-1.208-0.025-2.432-0.027-3.648
			c-0.002-1.034,0-2.068-0.005-3.101c-0.005-1.076-0.408-1.898-1.497-2.245c-1.193-0.38-2.294-0.02-3.003,1.097
			c-0.417,0.658-0.799,1.396-0.961,2.148c-0.772,3.591-0.889,7.242-0.743,10.898c0.054,1.355,0.619,1.975,1.962,2.275
			c0.941,0.21,1.925,0.29,2.892,0.315c2.312,0.06,4.627,0.012,6.938,0.087c2.249,0.073,4.498,0.201,6.74,0.386
			c2.96,0.244,3.907,1.306,4.004,4.288c0.091,2.795,0.179,5.591,0.305,8.385c0.041,0.908,0.159,1.817,0.305,2.716
			c0.291,1.795,0.735,3.573,0.912,5.378c0.198,2.021-0.221,2.571-2.098,3.313c-3.916,1.549-8.071,1.736-12.195,1.943
			c-1.932,0.097-2.902-0.861-3.297-2.752c-0.197-0.945-0.192-1.93-0.305-2.895c-0.106-0.902-0.113-1.847-0.415-2.683
			c-0.226-0.627-0.744-1.289-1.314-1.624c-1.762-1.035-4.423,0.056-4.24,2.457c0.342,4.494,1.278,8.893,2.244,13.277
			c0.348,1.579,1.497,1.989,3.134,1.552c1.113-0.297,2.212-0.652,3.336-0.893c3.209-0.689,6.425-1.347,9.645-1.987
			c1.131-0.225,2.275-0.442,3.422-0.521c2.331-0.161,3.524,0.713,4.17,2.924c0.324,1.109,0.586,2.237,0.947,3.333
			c1.73,5.255,3.464,10.508,5.236,15.749c1.053,3.115,0.565,4.513-2.37,5.915c-2.853,1.363-5.756,2.62-8.639,3.919
			c-2.265,1.021-3.466,0.604-4.689-1.829c-0.654-1.3-1.1-2.702-1.693-4.035c-0.418-0.94-0.826-1.911-1.414-2.743
			c-0.804-1.137-2.479-1.393-3.806-0.749c-1.199,0.581-1.487,1.432-1.047,3.105c0.046,0.176,0.107,0.35,0.178,0.517
			c1.77,4.136,3.462,8.309,5.345,12.393c1.195,2.59,2.59,2.945,5.196,1.719c0.275-0.129,0.539-0.282,0.81-0.42
			c4.06-2.081,8.119-4.164,12.182-6.239c0.487-0.249,0.988-0.473,1.496-0.676c1.409-0.564,2.664-0.271,3.635,0.864
			c0.708,0.827,1.295,1.761,1.91,2.664c3.423,5.028,6.835,10.063,10.257,15.092c0.411,0.603,0.887,1.164,1.275,1.78
			c0.664,1.054,0.649,3.418-0.119,4.105c-2.902,2.597-5.807,5.196-8.804,7.681c-1.367,1.134-2.987,0.918-4.258-0.396
			c-0.969-1.003-1.805-2.134-2.705-3.205c-0.821-0.977-1.596-2.001-2.488-2.91c-0.951-0.969-1.8-0.996-2.954-0.291
			c-1.776,1.085-2.094,2.814-0.628,4.677c2.595,3.299,5.302,6.51,7.981,9.743c0.385,0.465,0.846,0.879,1.318,1.259
			c1.314,1.057,2.056,1.07,3.425,0.03c0.628-0.477,1.206-1.025,1.781-1.567c3.099-2.923,6.178-5.866,9.29-8.775
			c0.752-0.703,1.567-1.35,2.41-1.94c0.999-0.699,2.07-0.649,3.079,0.015c0.505,0.332,0.966,0.736,1.428,1.13
			c4.217,3.589,8.43,7.182,12.643,10.775c0.556,0.474,1.133,0.926,1.653,1.437c1.742,1.713,1.929,2.603,0.614,4.642
			c-1.846,2.862-3.828,5.636-5.762,8.44c-0.206,0.299-0.464,0.565-0.719,0.825c-1.372,1.402-2.192,1.549-3.86,0.528
			c-1.035-0.633-1.957-1.448-2.981-2.101c-0.812-0.518-1.661-1.04-2.567-1.334c-1.214-0.394-2.492,0.222-3.139,1.289
			c-0.601,0.99-0.508,1.927,0.46,2.986c0.652,0.714,1.391,1.37,2.174,1.938c2.166,1.573,4.355,3.116,6.574,4.614
			c2.676,1.807,3.593,1.656,5.374-0.984c1.497-2.218,2.861-4.525,4.309-6.777c1.546-2.405,3.06-4.834,4.705-7.171
			c1.331-1.892,1.791-1.944,3.798-0.948c5.012,2.485,10.021,4.975,15.023,7.48c3.112,1.558,3.527,2.58,2.301,5.799
			c-0.996,2.614-2.024,5.217-3.115,7.792C108.992,288.899,108.278,290.101,107.482,291.646z"/>
		<path fill="#FFFFFF" d="M666.297,195.211c-4.433-9.284-8.833-18.497-13.251-27.749c-1.7,0-3.275,0-5.194,0
			c0,9.325,0,18.486,0,27.841c-9.004,0-17.661,0-26.306,0c-0.58-2.201-0.774-76.705-0.193-81.211
			c0.821-0.064,1.695-0.191,2.568-0.192c10.529-0.013,21.059-0.039,31.588,0.005c6.115,0.026,12.114,0.895,17.849,3.099
			c14.535,5.585,20.65,21.636,13.591,35.578c-1.827,3.609-4.499,6.458-7.87,8.667c-0.841,0.551-1.699,1.078-2.877,1.823
			c6.094,10.62,12.158,21.186,18.241,31.786C692.205,195.629,671.337,195.872,666.297,195.211z M647.998,147.236
			c2.751,0.638,8.128,0.611,10.316-0.013c3.077-0.877,4.684-3.108,4.721-6.553c0.038-3.462-1.467-5.807-4.526-6.687
			c-3.426-0.987-6.914-0.693-10.512-0.421C647.998,138.306,647.998,142.791,647.998,147.236z"/>
		<path fill="#FFFFFF" d="M556.306,183.175c-1.059,4.099-2.087,8.078-3.141,12.161c-9.369,0-18.536,0-28.217,0
			c8.492-27.202,16.905-54.148,25.365-81.246c11.696,0,23.289,0,35.247,0c8.388,26.857,16.81,53.825,25.232,80.791
			c-2.29,0.743-24.209,0.928-28.121,0.265c-1.041-3.872-2.111-7.847-3.22-11.971C571.707,183.175,564.075,183.175,556.306,183.175z
			 M574.227,162.444c-2.037-7.888-4.013-15.542-5.989-23.196c-0.208,0.011-0.416,0.022-0.623,0.033
			c-1.961,7.651-3.922,15.302-5.937,23.163C566.063,162.444,569.962,162.444,574.227,162.444z"/>
		<path fill="#FFFFFF" d="M853.563,195.33c-9.625,0-18.786,0-28.198,0c-1.085-4.007-2.16-7.979-3.285-12.135
			c-7.587,0-15.13,0-23.073,0c-1.042,3.896-2.124,7.942-3.243,12.125c-9.28,0-18.445,0-27.611,0
			c0.013-2.23,23.208-77.325,25.115-81.328c11.47,0,22.988,0,34.896,0C836.588,140.968,845.03,168.004,853.563,195.33z
			 M816.527,162.429c-0.399-4.53-5.014-21.359-6.358-22.918c-1.837,7.693-4.113,15.139-5.719,22.918
			C808.728,162.429,812.622,162.429,816.527,162.429z"/>
		<path fill="#FFFFFF" d="M525.625,140.242c-0.47-11.37-6-19.24-16.65-23.4c-5.24-2.05-10.72-2.91-16.33-2.94
			c-10.62-0.04-21.24-0.01-31.87,0c-0.77,0-1.55,0.13-2.39,0.21v81.02c3.76,0.66,24.19,0.5,26.56-0.24v-24.5
			c3.43,0,6.45,0.08,9.46-0.01c5.6-0.18,11.05-1.22,16.19-3.53c8.05-3.62,13.11-9.67,14.54-18.46
			C525.575,145.722,525.745,142.952,525.625,140.242z M498.395,144.342c-0.36,2.9-2.08,4.9-4.94,5.41
			c-2.63,0.48-5.34,0.48-8.34,0.72v-16.12c3.05-0.59,5.92-0.39,8.77,0.31c0.67,0.16,1.34,0.5,1.89,0.91
			C498.855,137.822,498.805,141.072,498.395,144.342z"/>
		<path fill="#FFFFFF" d="M377.966,181.74c6.007-4.135,11.743-8.083,17.577-12.099c0.955,0.828,1.769,1.559,2.61,2.258
			c4.198,3.488,8.923,5.562,14.487,5.155c1.29-0.094,2.635-0.362,3.814-0.874c3.154-1.37,3.616-4.981,0.906-7.073
			c-1.103-0.852-2.406-1.522-3.716-2.014c-3.312-1.243-6.664-2.382-10.028-3.482c-4.441-1.452-8.672-3.282-12.638-5.816
			c-14.079-8.995-14.404-33.769,3.3-41.882c5.357-2.455,10.986-3.417,16.814-3.443c7.176-0.031,14.101,1.17,20.587,4.397
			c4.394,2.187,8.192,5.104,11.492,9.227c-5.616,3.913-11.056,7.703-16.565,11.542c-2.817-2.7-5.795-4.83-9.576-5.17
			c-1.975-0.178-4.028,0.028-5.992,0.369c-1.554,0.271-2.748,1.339-3.102,2.996c-0.375,1.758,0.257,3.269,1.681,4.267
			c1.313,0.92,2.743,1.75,4.236,2.319c3.495,1.331,7.106,2.362,10.582,3.737c3.564,1.41,7.134,2.879,10.51,4.681
			c15.213,8.118,14.402,30.443,1.866,39.231c-4.578,3.209-9.612,5.135-15.068,6.061c-8.946,1.519-17.752,1.024-26.338-2.039
			C388.591,191.657,382.869,187.644,377.966,181.74z"/>
		<path fill="#FFFFFF" d="M747.472,195.312c-9.089,0-17.747,0-26.692,0c0-19.996,0-39.803,0-60.047
			c-3.768-0.027-7.267-0.063-10.767-0.075c-3.539-0.013-7.078-0.003-10.563-0.003c-0.68-2.277-0.825-17.248-0.221-21.097
			c23.197,0,46.426,0,69.862,0c0,6.916,0,13.752,0,20.927c-3.44,0.374-6.952,0.114-10.445,0.16c-3.537,0.046-7.075,0.01-11.021,0.01
			c-0.317,4.052-0.105,7.962-0.143,11.858c-0.039,4.05-0.009,8.101-0.009,12.151c0,3.949,0,7.898,0,11.848c0,4.05,0,8.101,0,12.151
			C747.472,187.128,747.472,191.062,747.472,195.312z"/>
		<path fill="#FFFFFF" d="M158.187,277.975c-4.593-0.26-9.495-0.202-14.298-0.866c-25.927-3.584-48.51-14.226-67.325-32.551
			c-14.978-14.589-25.258-32.011-31.045-52.085c-1.551-5.379-2.436-10.895-3.35-16.419c-1.422-8.604-1.528-17.224-0.671-25.832
			c2.818-28.325,13.987-52.823,34.187-73.016c16.078-16.073,35.311-26.461,57.456-31.563c4.533-1.044,9.089-1.611,13.714-1.874
			c2.853-0.162,5.694-0.517,8.546-0.707c4.328-0.289,8.632,0.113,12.935,0.543c3.087,0.308,6.206,0.381,9.265,0.857
			c6.804,1.059,13.426,2.902,19.919,5.182c35.765,12.555,63.64,42.362,73.855,78.86c1.857,6.637,3.169,13.39,3.93,20.206
			c0.565,5.06,0.601,10.217,0.426,15.315c-0.842,24.402-8.403,46.563-22.947,66.189c-15.654,21.126-36.165,35.456-61.392,43.001
			c-6.312,1.888-12.765,3.124-19.264,3.989C167.622,277.805,163.027,277.733,158.187,277.975z M158.422,271.665
			c3.723-0.096,7.616-0.186,11.507-0.303c0.727-0.022,1.461-0.097,2.173-0.239c3.872-0.774,7.759-1.488,11.602-2.387
			c10.794-2.526,20.99-6.592,30.556-12.197c9.29-5.443,17.663-12.036,25.011-19.936c4.782-5.141,9.109-10.619,12.859-16.548
			c5.788-9.15,10.255-18.897,13.14-29.35c0.194-0.701,0.4-1.4,0.577-2.105c0.651-2.585,1.325-5.166,1.919-7.764
			c0.229-1.002,0.203-2.061,0.406-3.071c0.862-4.298,1.351-8.631,1.491-13.013c0.179-5.6,0.049-11.188-0.617-16.749
			c-0.332-2.773-0.752-5.547-1.356-8.272c-0.773-3.488-1.672-6.955-2.69-10.38c-7.956-26.768-23.809-47.644-47.172-62.834
			c-9.864-6.413-20.601-10.9-31.976-13.872c-0.936-0.245-1.867-0.514-2.812-0.72c-1.955-0.426-3.902-0.935-5.88-1.198
			c-3.976-0.528-7.974-0.894-11.958-1.364c-3.694-0.435-7.381-0.707-11.1-0.241c-4.523,0.567-9.068,0.971-13.583,1.588
			c-2.821,0.385-5.633,0.92-8.398,1.598c-2.463,0.604-4.838,1.555-7.281,2.253c-8.248,2.359-15.93,5.991-23.261,10.377
			c-9.728,5.819-18.381,12.949-25.924,21.441c-13.574,15.283-22.205,33.002-26.313,52.97c-0.354,1.719-0.303,3.525-0.699,5.231
			c-1.922,8.286-1.774,16.652-1.143,25.047c0.301,4.001,1.774,7.836,1.683,11.894c-0.005,0.237,0.081,0.479,0.145,0.714
			c1.151,4.153,2.137,8.361,3.489,12.448c6.238,18.864,16.57,35.084,31.416,48.39c8.868,7.948,18.684,14.387,29.579,19.189
			c7.993,3.523,16.3,6.026,24.875,7.653c2.685,0.51,5.365,1.176,8.077,1.392C150.578,271.611,154.421,271.56,158.422,271.665z"/>
		<path fill="#FFFFFF" d="M149.566,90.849c3.161,0.126,6.323,0.239,9.484,0.391c0.536,0.026,1.062,0.221,1.595,0.329
			c1.215,0.246,1.918-0.173,2.186-1.296c0.244-1.022-0.259-2.021-1.28-2.297c-0.817-0.22-1.673-0.323-2.519-0.402
			c-12.184-1.149-24.299-0.566-36.376,1.345c-9.196,1.455-18.303,3.336-27.372,5.42c-0.532,0.122-1.074,0.215-1.616,0.27
			c-1.185,0.12-2.57-1.458-1.659-2.828c0.402-0.605,0.855-1.181,1.325-1.735c3.345-3.943,6.65-7.922,10.073-11.796
			c1.724-1.951,3.848-3.275,6.613-3.398c3.982-0.177,7.969-0.386,11.934-0.776c8.57-0.843,17.153-0.603,25.717-0.218
			c6.311,0.284,12.629,0.904,18.883,1.798c3.638,0.52,7.185,1.787,10.714,2.906c1.169,0.371,2.242,1.221,3.2,2.039
			c1.921,1.64,4.023,2.616,6.59,2.745c2.181,0.11,4.35,0.485,6.52,0.78c4.635,0.631,8.381,3.065,11.893,5.944
			c0.744,0.609,1.419,1.304,2.104,1.982c2.801,2.771,6.199,4.411,9.956,5.481c2.969,0.845,5.925,1.78,8.799,2.9
			c3.224,1.256,6.347,2.771,9.518,4.163c1.113,0.489,2.258,0.91,3.355,1.432c3.173,1.507,4.05,6,1.412,8.255
			c-1.678,1.434-2.148,3.116-2.305,5.091c-0.067,0.848-0.11,1.705-0.275,2.536c-0.282,1.418-0.842,1.944-2.253,1.79
			c-1.802-0.197-3.617-0.488-5.36-0.975c-4.217-1.178-8.408-2.416-12.752-3.082c-8.551-1.311-16.991-0.689-25.346,1.361
			c-6.836,1.677-13.399,4.078-19.222,8.128c-9.239,6.426-15.992,14.839-20.072,25.38c-1.339,3.459-2.874,6.841-3.672,10.486
			c-2.524,11.531-2.16,22.968,2.419,33.875c5.684,13.541,15.563,22.744,29.995,26.604c1.575,0.421,3.192,0.687,4.789,1.026
			c1.511,0.321,3.301,2.47,3.583,4.25c0.475,3.004,1.385,5.891,2.692,8.623c0.484,1.01,1.416,1.798,2.083,2.731
			c0.663,0.927,1.39,1.848,1.834,2.88c0.485,1.126,0.107,1.939-1.045,2.302c-1.074,0.339-2.276,0.649-3.361,0.507
			c-5.487-0.713-10.957-1.563-16.426-2.406c-0.831-0.128-1.634-0.454-2.439-0.722c-2.063-0.687-2.932-2.225-3.036-4.305
			c-0.106-2.114-0.193-4.229-0.354-6.339c-0.059-0.776-0.235-1.564-0.492-2.299c-0.281-0.805-0.917-1.293-1.816-1.264
			c-0.97,0.032-1.91,0.803-2.122,1.714c-0.068,0.293-0.119,0.611-0.081,0.905c0.285,2.221,0.511,4.455,0.926,6.652
			c0.282,1.493-0.146,2.717-1.493,3.021c-3.035,0.686-5.783,0.053-8.096-2.076c-1.163-1.07-1.789-2.416-1.791-4.049
			c-0.005-4.472,0.607-8.844,2.019-13.093c0.453-1.365-0.171-2.767-1.511-3.177c-0.299-0.091-0.778-0.044-0.997,0.144
			c-0.54,0.464-1.077,0.99-1.429,1.599c-0.357,0.618-0.614,1.351-0.701,2.06c-0.418,3.432-1.402,6.795-1.186,10.308
			c0.051,0.827-0.139,1.7-0.373,2.507c-0.493,1.7-1.788,2.444-3.5,2.044c-1.123-0.262-2.219-0.641-3.331-0.953
			c-1.567-0.439-2.519-1.66-3.492-2.815c-0.271-0.322-0.369-0.924-0.311-1.367c0.405-3.131,0.61-6.321,1.384-9.364
			c0.986-3.878,2.439-7.637,3.72-11.438c0.13-0.386,0.475-0.695,0.689-1.059c0.537-0.915,0.219-2.329-0.644-2.936
			c-0.81-0.569-1.826-0.377-2.341,0.508c-0.366,0.628-0.641,1.311-0.942,1.975c-2.653,5.851-4.741,11.854-5.104,18.348
			c-0.046,0.821-0.329,1.662-0.656,2.428c-0.639,1.493-2.205,2.038-3.632,1.319c-1.136-0.572-2.334-1.08-3.344-1.832
			c-1.345-1.002-2.331-2.27-2.073-4.175c1.054-7.769,2.89-15.285,6.806-22.18c1.741-3.065,3.372-6.192,5.038-9.298
			c0.618-1.152,0.458-2.196-0.378-2.782c-0.897-0.63-2.168-0.315-2.984,0.851c-2.555,3.652-4.639,7.565-6.417,11.65
			c-2.319,5.328-3.701,10.933-4.95,16.578c-0.091,0.412-0.143,0.849-0.117,1.269c0.103,1.665-0.812,2.686-2.175,3.348
			c-1.165,0.565-2.266,0.088-3.276-0.519c-0.938-0.563-1.775-1.319-2.755-1.782c-2.069-0.977-2.733-3.741-2.241-5.481
			c2.07-7.326,4.352-14.565,8.176-21.218c2.732-4.754,5.49-9.474,9.397-13.414c1.15-1.159,2.101-2.525,3.081-3.842
			c0.996-1.338,1.03-2.237,0.233-2.904c-0.967-0.811-1.977-0.662-3.181,0.519c-4.464,4.377-8.127,9.371-11.276,14.75
			c-3.833,6.547-6.601,13.544-8.754,20.804c-0.289,0.975-0.744,1.924-1.269,2.798c-0.671,1.119-1.869,1.541-2.998,0.908
			c-1.741-0.976-3.497-2.008-5-3.303c-1.686-1.452-1.769-3.536-1.215-5.572c1.328-4.883,3.101-9.606,5.335-14.149
			c5.669-11.53,13.436-21.405,23.402-29.527c1.125-0.916,2.366-1.702,3.611-2.453c0.738-0.445,1.271-0.903,1.213-1.838
			c-0.058-0.949-0.607-1.635-1.351-2.034c-0.37-0.198-1.142-0.093-1.491,0.182c-4.396,3.454-8.975,6.688-12.803,10.824
			c-7.299,7.888-13.313,16.6-17.319,26.624c-0.854,2.138-1.669,4.292-2.522,6.431c-0.224,0.563-0.506,1.104-0.789,1.641
			c-1.105,2.103-3.726,2.307-5.062,0.769c-1.819-2.095-3.429-4.404-4.884-6.771c-0.816-1.327-0.569-2.963,0.006-4.429
			c0.287-0.731,0.641-1.453,1.075-2.105c4.314-6.482,8.534-13.032,13.012-19.399c5.835-8.296,13.251-15.058,21.4-21.022
			c1.857-1.36,3.936-2.417,5.915-3.61c2.136-1.288,4.305-2.524,6.401-3.874c1.312-0.845,1.444-2.275,0.335-3.215
			c-0.342-0.29-1.062-0.466-1.454-0.309c-1.679,0.671-3.329,1.431-4.939,2.256c-6.942,3.555-13.003,8.322-18.607,13.696
			c-6.04,5.792-11.346,12.217-16.129,19.069c-2.821,4.04-5.533,8.158-8.223,12.287c-0.815,1.251-1.892,1.837-3.298,1.957
			c-0.94,0.08-1.591-0.266-2.007-1.204c-0.861-1.943-1.818-3.845-2.752-5.755c-0.865-1.769-0.904-3.602,0.04-5.272
			c7.167-12.693,15.349-24.57,27.173-33.5c8.439-6.374,17.663-11.182,27.83-14.129c1.619-0.469,3.305-0.708,4.95-1.095
			c0.454-0.107,0.928-0.288,1.296-0.564c1.006-0.754,1.231-1.471,0.848-2.341c-0.383-0.87-1.123-1.255-2.268-1.087
			c-0.841,0.124-1.671,0.324-2.5,0.515c-16.672,3.837-30.867,11.91-42.4,24.628c-4.875,5.376-9.466,10.958-13.502,16.993
			c-0.362,0.541-0.758,1.176-1.299,1.455c-1.41,0.728-2.843,0.015-3.147-1.594c-0.44-2.326-0.772-4.676-1.053-7.028
			c-0.202-1.689-0.229-3.399-0.361-5.097c-0.142-1.836,0.317-3.437,1.634-4.788c9.47-9.713,19.644-18.565,31.433-25.389
			c4.632-2.681,9.498-4.862,14.618-6.544c5.624-1.847,11.407-2.889,17.189-3.946c2.13-0.389,4.359-0.24,6.543-0.322
			c0.363-0.014,0.728,0.05,1.093,0.07c0.922,0.052,1.508-0.503,1.84-1.233c0.316-0.695,0.231-1.463-0.426-1.992
			c-0.413-0.333-0.866-0.676-1.359-0.84c-5.884-1.961-10.96-5.235-15.305-9.606c-1.312-1.32-2.278-2.986-3.397-4.497
			c-0.108-0.145-0.185-0.315-0.263-0.48c-0.87-1.841-0.318-2.957,1.702-3.173c3.809-0.407,7.621-0.819,11.443-1.052
			c2.666-0.163,5.35-0.031,8.026-0.031C149.567,90.91,149.566,90.88,149.566,90.849z M188.03,93.525
			c0.225,0.618,0.371,1.281,0.691,1.845c0.903,1.589,2.237,2.671,3.999,3.242c2.642,0.857,5.49,0.989,7.998,2.367
			c0.416,0.229,1.386-0.039,1.785-0.413c0.536-0.502,0.909-1.277,0.444-2.149c-0.335-0.628-0.583-1.309-0.808-1.987
			c-0.562-1.698-1.585-2.986-3.219-3.755c-0.713-0.335-1.412-0.719-2.155-0.965c-2.502-0.827-5.001-0.724-7.481,0.145
			C188.503,92.13,188.062,92.616,188.03,93.525z"/>
		<path fill="#FFFFFF" d="M205.39,202.242c-1.903-3.201-0.617-6.078,2.967-6.674c1.546-0.257,3.125-0.367,4.694-0.424
			c1.425-0.052,2.694,0.945,2.978,2.237c0.323,1.468-0.03,2.504-1.361,3.229c-0.844,0.459-1.641,1.067-2.326,1.743
			c-1.299,1.283-1.144,2.803,0.129,4.114c3.694,3.805,5.337,8.272,3.789,13.508c-1.617,5.47-7.386,8.313-12.892,6.84
			c-4.514-1.207-9.148-1.955-13.702-3.022c-3.369-0.789-6.737-1.632-10.031-2.682c-5.589-1.782-10.074-5.348-14.174-9.394
			c-6.85-6.76-11.386-14.806-13.134-24.337c-0.153-0.837-0.322-1.68-0.364-2.526c-0.377-7.657-0.985-15.356,1.763-22.749
			c2.256-6.07,5.317-11.761,9.057-17.035c1.462-2.061,3.379-3.833,5.246-5.567c8.567-7.959,18.746-12.729,30.157-14.98
			c1.668-0.329,3.371-0.481,5.044-0.791c2.026-0.375,3.566,0.367,4.812,1.905c0.268,0.331,0.515,0.68,0.799,0.996
			c0.884,0.986,1.569,0.953,2.344-0.11c0.214-0.294,0.361-0.639,0.589-0.92c0.998-1.227,2.099-1.51,3.53-0.937
			c1.369,0.549,2.023,1.45,1.848,2.989c-0.218,1.921-0.645,3.817-0.918,5.733c-0.091,0.641-0.11,1.34,0.051,1.957
			c0.272,1.046,1.795,1.446,2.644,0.609c1.291-1.274,2.528-2.634,3.591-4.099c1.031-1.421,1.797-3.032,2.716-4.538
			c0.377-0.618,0.844-1.183,1.276-1.766c0.906-1.222,2.141-1.235,3.439-0.879c1.176,0.322,1.811,1.023,1.713,2.245
			c-0.111,1.378-0.28,2.816-0.787,4.083c-1.017,2.541-1.294,5.043-1.128,7.808c0.616,10.261,0.969,20.537,1.373,30.81
			c0.129,3.282-0.013,6.578,0.202,9.852c0.179,2.725-2.548,4.91-4.777,4.512c-1.372-0.245-2.785-0.256-4.179-0.378
			c-0.973-0.085-1.794,0.243-2.49,0.905c-0.892,0.848-0.967,1.361-0.419,2.728c0.466,1.163,0.153,2.671-0.735,3.534
			c-0.942,0.916-2.441,1.313-3.535,0.698c-2.423-1.362-5.026-1.299-7.618-1.025c-3.529,0.373-6.652,1.865-9.488,3.957
			c-2.163,1.595-3.36,3.823-3.915,6.396c-0.705,3.269,1.373,5.31,4.064,6.186c2.744,0.893,5.504-0.444,6.576-3.094
			C205.011,203.382,205.173,202.86,205.39,202.242z M225.59,165.697c0.045-0.002,0.091-0.005,0.136-0.007
			c-0.206-4.176-0.412-8.353-0.62-12.529c-0.009-0.182-0.027-0.364-0.052-0.545c-0.186-1.314-0.831-2.049-1.992-2.278
			c-1.257-0.247-2.371,0.174-2.941,1.3c-1.109,2.191-2.63,4.178-2.519,6.905c0.075,1.832-1.588,2.868-3.424,2.6
			c-1.382-0.201-2.296-1.009-2.993-2.159c-0.922-1.525-2.214-2.427-4-2.899c-1.357-0.359-2.791-0.469-4.095-1.236
			c-1.18-0.694-1.569-1.528-1.647-2.777c-0.078-1.271,0.425-2.169,1.529-2.639c1.947-0.83,3.884-1.815,5.929-2.254
			c2.841-0.61,5.772-0.817,8.674-1.114c1.649-0.169,3.244-0.481,4.731-1.212c1.289-0.634,1.959-1.798,2.169-3.137
			c0.209-1.326-0.891-2.345-2.236-2.191c-0.958,0.109-1.909,0.305-2.851,0.516c-1.766,0.395-3.504,0.967-5.289,1.218
			c-3.238,0.455-6.494,0.835-9.755,1.046c-2.81,0.182-4.581,1.675-5.913,3.952c-5.08,8.684-11.624,15.863-20.799,20.379
			c-4.993,2.458-5.805,10.099-2.381,13.123c1.226,1.082,2.394,2.28,3.362,3.592c1.503,2.04,2.574,4.162,1.299,6.89
			c-1.296,2.775-0.384,5.449,2.096,7.667c0.707,0.633,1.438,0.812,2.336,0.691c2.59-0.347,3.937-2.05,4.594-4.359
			c0.575-2.02,1.526-3.788,2.722-5.506c3.371-4.844,7.855-8.087,13.519-9.655c2.944-0.815,5.905-1.084,9.009-0.581
			c2.733,0.443,5.568,0.412,8.351,0.334c2.269-0.064,3.352-1.391,3.446-3.669c0.03-0.728,0.013-1.461-0.021-2.189
			C225.848,170.548,225.716,168.123,225.59,165.697z"/>
		<path fill="#FFFFFF" d="M74.531,138.416c0.529-3.727,1.013-7.461,1.607-11.177c0.269-1.682,1.171-2.965,2.71-3.896
			c10.074-6.096,20.559-11.265,31.749-15.046c5.388-1.821,10.863-3.1,16.429-4.099c2.255-0.405,4.199,0.2,5.753,1.969
			c0.387,0.44,0.904,0.826,1.439,1.061c0.893,0.392,1.469,0.988,1.271,1.946c-0.199,0.958-0.639,1.834-1.783,2.085
			c-2.017,0.443-4.038,0.883-6.034,1.411c-8.237,2.178-15.921,5.626-23.122,10.165c-8.509,5.363-16.55,11.358-24.162,17.929
			c-0.415,0.358-0.819,0.729-1.245,1.072c-0.896,0.722-1.821,1.175-2.999,0.543c-1.093-0.587-1.629-1.391-1.43-2.656
			c0.065-0.416,0.01-0.85,0.01-1.276C74.66,138.437,74.596,138.427,74.531,138.416z"/>
		<path fill="#FFFFFF" d="M120.058,93.392c0.425,0,0.851-0.005,1.276,0.001c0.937,0.014,1.561,0.429,2.002,1.299
			c0.405,0.799,0.921,1.581,1.543,2.22c0.88,0.905,1.406,1.865,0.966,3.104c-0.419,1.178-1.319,1.784-2.56,2.059
			c-3.616,0.802-7.258,1.531-10.809,2.567c-7.723,2.255-15.048,5.541-22.266,9.059c-1.742,0.849-3.421,1.83-5.129,2.75
			c-0.214,0.115-0.423,0.24-0.641,0.347c-1.42,0.696-2.508,0.603-3.52-0.362c-1.004-0.957-1.075-2.214-0.604-3.353
			c1.184-2.861,2.477-5.679,3.824-8.468c0.46-0.952,0.643-2.039,1.614-2.793c0.831-0.646,1.618-1.229,2.65-1.481
			c7.374-1.804,14.73-3.684,22.123-5.406c3.128-0.729,6.331-1.134,9.5-1.686C120.036,93.297,120.047,93.345,120.058,93.392z"/>
	</g>
</g>
</svg>
